<!DOCTYPE svg PUBLIC "-//W3C//DTD SVG 1.1//EN" "http://www.w3.org/Graphics/SVG/1.1/DTD/svg11.dtd">
<!-- Uploaded to: SVG Repo, www.svgrepo.com, Transformed by: SVG Repo Mixer Tools -->
<svg version="1.1" id="_x32_" xmlns="http://www.w3.org/2000/svg" xmlns:xlink="http://www.w3.org/1999/xlink" viewBox="-51.2 -51.2 614.40 614.40" xml:space="preserve" width="800px" height="800px" fill="#276100" stroke="#276100" transform="matrix(-1, 0, 0, 1, 0, 0)">
<g id="SVGRepo_bgCarrier" stroke-width="0">
<path transform="translate(-51.2, -51.2), scale(19.2)" d="M16,30.848096769717003C18.35405172011006,30.842271485767164,19.108160555234583,27.42979360935107,20.645968013416862,25.647451987650786C21.67056691822828,24.459926680839942,22.651792142689377,23.309674682770403,23.58915733030419,22.05215101495942C24.500292181032005,20.829816694785713,25.241270638768185,19.557493214654777,26.116134678241462,18.308941726360512C27.433274349211,16.42920199277799,29.91585079860342,15.075103189429823,30.08207907793531,12.785857344615206C30.2370356272783,10.651842373540491,28.81785822109766,8.27495126690691,26.915896464563826,7.294863053714835C24.85044568408122,6.23052831726433,22.312874860201923,8.093200667307556,20.039891277733076,7.611079321961311C18.447774538280086,7.273376282531692,17.447335564662733,5.723876170662128,16,4.979498028755188C13.809389360788977,3.852846603149228,11.677565610057316,1.4427174031146535,9.300093910474962,2.0875016500759607C7.104631680092421,2.682923863176489,6.058802134905221,5.53194208977178,5.687736497245551,7.7762442774100755C5.332249052130638,9.926325475392314,7.676945666448672,11.869463064963988,7.327134817283996,14.020475117779535C7.010193382459167,15.969370779457327,4.299512420648586,16.827542910344263,3.901252940467458,18.761460064635315C3.4906499634903847,20.755316282239452,3.643330496690755,23.279328582405924,5.135188111221373,24.66439835651412C6.690926839852473,26.10877660578452,9.497974669728505,24.62040939099672,11.342945632261614,25.67047303960941C13.385988889365349,26.83326936561901,13.649236888372098,30.853913915749548,16,30.848096769717003" fill="#d2a470" strokewidth="0"/>
</g>
<g id="SVGRepo_tracerCarrier" stroke-linecap="round" stroke-linejoin="round"/>
<g id="SVGRepo_iconCarrier"> <style type="text/css"> .st0{fill:#084700;} </style> <g> <rect x="207.086" y="496.19" class="st0" width="140.908" height="15.81"/> <path class="st0" d="M472.271,113.106c-13.991-49.444-54.964-70.478-101.933-62.483c-43.254,7.362-65.847,61.281-76.372,93.978 c3.124-43.308-4.871-103.534-56.541-131.656C158.477-30.028,108.51,46.922,103.513,56.915c-4.997,9.994-5.013,11.906,8.994,10.993 c4.169-0.273,40.505-10.5,76.153-4.052l16.786-15.474l7.776,21.806c29.544,10.352,53.247,36.882,57.51,76.661 c-23.968-29.466-60.929-48.437-102.558-48.437c-72.39,0-131.055,57.079-131.055,127.487c0,5.668,0.11,1.6,0.11,1.6 c0.203,2.67,1.951,4.974,4.466,5.888c2.514,0.906,5.34,0.257,7.198-1.663c0,0,1.467-2.272,8.026-8.268 c11.555-10.572,24.265-19.885,37.881-27.826l12.446-23.242l16.801,8.924c25.218-10.048,52.716-15.591,81.51-15.591 c19.003,0,37.443,2.413,55.026,6.933c-40.552-2.685-101.684,18.457-125.886,70.071c-29.98,63.958-0.468,114.722,3.794,118.696 c3.498,3.256,7.729,0.719,8.869-4.958c2.514-12.406,9.4-35.594,22.048-61.6l-5.106-20.626l14.053,3.598 c17.629-31.073,43.425-63.7,79.932-85.678c-21.877,48.196-40.63,113.715-31.495,197.012H52.546v15.81H228.79 c2.17,14.522,5.231,29.582,9.228,45.142h-87.536v15.81h91.752h86.896h58.196v-15.81h-71.063 c-7.136-10.127-16.145-25.186-24.046-45.142h176.26v-15.81H286.58c-13.741-42.964-20.705-104.088,0.188-183.894 c9.962,12.874,22.641,31.557,33.212,54.316l13.382,1.687l-5.981,16.005c7.324,19.597,12.601,41.489,13.335,64.918 c0.187,5.981,3.794,10.408,5.637,6.489c28.231-60.164,19.346-121.741-20.221-157.67c24.952,8.229,45.346,28.294,61.226,51.247 l18.956,4.068l-3.529,21.361c13.288,25.28,21.455,50.311,24.359,64.661c1.156,5.652,4.154,9.338,7.761,2.905 c21.548-38.335,24.327-111.896-14.6-152.166c-30.184-31.214-83.446-33.268-116.237-24.617 c21.533-36.203,79.136-38.897,79.136-38.897s9.119-20.986,11.118-23.984c1.999-2.998,12.992,20.44,12.992,20.44l58.008,23.695 c0,0,7.449,5.091,8.9-3.56C475.097,130.945,475.628,122.896,472.271,113.106z"/> </g> </g>
</svg>